<svg width="24" height="24" viewBox="0 0 24 24" fill="none" xmlns="http://www.w3.org/2000/svg">
<path fill-rule="evenodd" clip-rule="evenodd" d="M1.5 12C1.5 12.1989 1.57902 12.3897 1.71967 12.5304C1.86032 12.671 2.05109 12.75 2.25 12.75L19.9395 12.75L15.219 17.469C15.1493 17.5388 15.094 17.6215 15.0562 17.7127C15.0185 17.8038 14.9991 17.9014 14.9991 18C14.9991 18.0986 15.0185 18.1963 15.0562 18.2874C15.094 18.3785 15.1493 18.4613 15.219 18.531C15.2887 18.6008 15.3715 18.6561 15.4626 18.6938C15.5537 18.7316 15.6514 18.751 15.75 18.751C15.8486 18.751 15.9463 18.7316 16.0374 18.6938C16.1285 18.6561 16.2113 18.6008 16.281 18.531L22.281 12.531C22.3508 12.4614 22.4063 12.3786 22.4441 12.2875C22.4819 12.1964 22.5013 12.0987 22.5013 12C22.5013 11.9014 22.4819 11.8037 22.4441 11.7126C22.4063 11.6215 22.3508 11.5387 22.281 11.469L16.281 5.46903C16.2113 5.3993 16.1285 5.34398 16.0374 5.30624C15.9463 5.26851 15.8486 5.24908 15.75 5.24908C15.6514 5.24908 15.5537 5.26851 15.4626 5.30624C15.3715 5.34398 15.2887 5.3993 15.219 5.46903C15.1493 5.53876 15.094 5.62155 15.0562 5.71265C15.0185 5.80376 14.9991 5.90141 14.9991 6.00003C14.9991 6.09865 15.0185 6.1963 15.0562 6.28741C15.094 6.37851 15.1493 6.4613 15.219 6.53103L19.9395 11.25L2.25 11.25C2.05109 11.25 1.86032 11.329 1.71967 11.4697C1.57902 11.6104 1.5 11.8011 1.5 12Z" fill="black"/>
</svg>
