<svg width="36" height="36" viewBox="0 0 36 36" fill="none" xmlns="http://www.w3.org/2000/svg">
<path d="M18 28.5842L17.568 28.2242C8.28001 20.6642 5.76001 18.0002 5.76001 13.6802C5.76001 10.0802 8.64001 7.2002 12.24 7.2002C15.192 7.2002 16.848 8.8562 18 10.1522C19.152 8.8562 20.808 7.2002 23.76 7.2002C27.36 7.2002 30.24 10.0802 30.24 13.6802C30.24 18.0002 27.72 20.6642 18.432 28.2242L18 28.5842ZM12.24 8.6402C9.43201 8.6402 7.20001 10.8722 7.20001 13.6802C7.20001 17.3522 9.50401 19.8002 18 26.7122C26.496 19.8002 28.8 17.3522 28.8 13.6802C28.8 10.8722 26.568 8.6402 23.76 8.6402C21.24 8.6402 19.872 10.1522 18.792 11.3762L18 12.3122L17.208 11.3762C16.128 10.1522 14.76 8.6402 12.24 8.6402Z" fill="#747474"/>
</svg>
