<svg width="15" height="15" viewBox="0 0 15 15" fill="none" xmlns="http://www.w3.org/2000/svg">
<path d="M7.50001 1.20557C10.3848 1.20557 12.7232 3.54396 12.7232 6.42878C12.7232 8.63592 11.1723 11.0413 8.11072 13.6706C7.94049 13.8168 7.72343 13.8971 7.49901 13.8969C7.27458 13.8967 7.05767 13.816 6.88769 13.6695L6.68519 13.4938C3.75912 10.9331 2.27679 8.58664 2.27679 6.42878C2.27679 3.54396 4.61519 1.20557 7.50001 1.20557ZM7.50001 2.00914C6.32785 2.00914 5.20369 2.47478 4.37485 3.30362C3.54601 4.13247 3.08037 5.25662 3.08037 6.42878C3.08037 8.30485 4.44537 10.4665 7.21287 12.8879L7.41269 13.0609C7.43698 13.0818 7.46797 13.0933 7.50001 13.0933C7.53205 13.0933 7.56303 13.0818 7.58733 13.0609C10.4888 10.5688 11.9197 8.34932 11.9197 6.42878C11.9197 5.84839 11.8053 5.27367 11.5832 4.73746C11.3611 4.20124 11.0356 3.71402 10.6252 3.30362C10.2148 2.89322 9.72755 2.56767 9.19133 2.34556C8.65512 2.12346 8.0804 2.00914 7.50001 2.00914ZM7.50001 4.41985C8.03281 4.41985 8.54379 4.63151 8.92054 5.00825C9.29728 5.385 9.50894 5.89598 9.50894 6.42878C9.50894 6.96158 9.29728 7.47256 8.92054 7.84931C8.54379 8.22606 8.03281 8.43771 7.50001 8.43771C6.96721 8.43771 6.45623 8.22606 6.07948 7.84931C5.70273 7.47256 5.49108 6.96158 5.49108 6.42878C5.49108 5.89598 5.70273 5.385 6.07948 5.00825C6.45623 4.63151 6.96721 4.41985 7.50001 4.41985ZM7.50001 5.22342C7.18033 5.22342 6.87374 5.35042 6.64769 5.57647C6.42164 5.80251 6.29465 6.1091 6.29465 6.42878C6.29465 6.74846 6.42164 7.05505 6.64769 7.2811C6.87374 7.50715 7.18033 7.63414 7.50001 7.63414C7.81969 7.63414 8.12628 7.50715 8.35232 7.2811C8.57837 7.05505 8.70537 6.74846 8.70537 6.42878C8.70537 6.1091 8.57837 5.80251 8.35232 5.57647C8.12628 5.35042 7.81969 5.22342 7.50001 5.22342Z" fill="black"/>
</svg>
