<svg width="91" height="20" viewBox="0 0 91 20" fill="none" xmlns="http://www.w3.org/2000/svg">
<path fill-rule="evenodd" clip-rule="evenodd" d="M11.3941 7.815L9.5 1.25L7.60594 7.815H1.1875L6.38044 12.065L4.45312 18.75L9.5 14.6187L14.5469 18.75L12.6196 12.065L17.8125 7.815H11.3941Z" fill="#626262"/>
<path fill-rule="evenodd" clip-rule="evenodd" d="M29.3941 7.815L27.5 1.25L25.6059 7.815H19.1875L24.3804 12.065L22.4531 18.75L27.5 14.6187L32.5469 18.75L30.6196 12.065L35.8125 7.815H29.3941Z" fill="#626262"/>
<path fill-rule="evenodd" clip-rule="evenodd" d="M47.3941 7.815L45.5 1.25L43.6059 7.815H37.1875L42.3804 12.065L40.4531 18.75L45.5 14.6187L50.5469 18.75L48.6196 12.065L53.8125 7.815H47.3941Z" fill="#626262"/>
<path fill-rule="evenodd" clip-rule="evenodd" d="M65.3941 7.815L63.5 1.25L61.6059 7.815H55.1875L60.3804 12.065L58.4531 18.75L63.5 14.6187L68.5469 18.75L66.6196 12.065L71.8125 7.815H65.3941Z" fill="#626262"/>
<path d="M82.5153 7.96029L82.623 8.315H82.9938H88.2923L83.9768 11.6703L83.7055 11.8813L83.8053 12.2102L85.377 17.3891L81.3069 14.224L81 13.9854L80.6931 14.224L76.623 17.3891L78.1947 12.2102L78.2945 11.8813L78.0232 11.6703L73.7077 8.315H79.0063H79.377L79.4847 7.96029L81 2.97064L82.5153 7.96029Z" stroke="#6E6E6E"/>
</svg>
