<svg width="67" height="21" viewBox="0 0 67 21" fill="none" xmlns="http://www.w3.org/2000/svg">
<path d="M31.5566 18H21.8789V16.2617L25.5605 12.5605C26.6478 11.4473 27.3672 10.6595 27.7188 10.1973C28.0768 9.72852 28.3372 9.28906 28.5 8.87891C28.6628 8.46875 28.7441 8.0293 28.7441 7.56055C28.7441 6.91602 28.5488 6.4082 28.1582 6.03711C27.7741 5.66602 27.2402 5.48047 26.5566 5.48047C26.0098 5.48047 25.4792 5.58138 24.9648 5.7832C24.457 5.98503 23.8678 6.34961 23.1973 6.87695L21.957 5.36328C22.7513 4.69271 23.5228 4.21745 24.2715 3.9375C25.0202 3.65755 25.8177 3.51758 26.6641 3.51758C27.9922 3.51758 29.0566 3.86589 29.8574 4.5625C30.6582 5.2526 31.0586 6.18359 31.0586 7.35547C31.0586 8 30.9414 8.61198 30.707 9.19141C30.4792 9.77083 30.1243 10.3698 29.6426 10.9883C29.1673 11.6003 28.373 12.4303 27.2598 13.4785L24.7793 15.8809V15.9785H31.5566V18ZM40.043 18H37.748V8.78125C37.748 7.68099 37.7741 6.80859 37.8262 6.16406C37.6764 6.32031 37.4909 6.49284 37.2695 6.68164C37.0547 6.87044 36.3255 7.4694 35.082 8.47852L33.9297 7.02344L38.1289 3.72266H40.043V18ZM49.5742 9.08398C51.013 9.08398 52.1523 9.46484 52.9922 10.2266C53.832 10.9883 54.252 12.0267 54.252 13.3418C54.252 14.8652 53.7734 16.0566 52.8164 16.916C51.8659 17.7689 50.5117 18.1953 48.7539 18.1953C47.1589 18.1953 45.9056 17.9382 44.9941 17.4238V15.3438C45.5215 15.6432 46.127 15.8743 46.8105 16.0371C47.4941 16.1999 48.1289 16.2812 48.7148 16.2812C49.75 16.2812 50.5378 16.0501 51.0781 15.5879C51.6185 15.1257 51.8887 14.4486 51.8887 13.5566C51.8887 11.8509 50.8014 10.998 48.627 10.998C48.321 10.998 47.9434 11.0306 47.4941 11.0957C47.0449 11.1543 46.651 11.2227 46.3125 11.3008L45.2871 10.6953L45.834 3.72266H53.2559V5.76367H47.8555L47.5332 9.29883C47.7611 9.25977 48.0378 9.21419 48.3633 9.16211C48.6953 9.11003 49.099 9.08398 49.5742 9.08398ZM65.834 10.8613C65.834 13.3418 65.4336 15.1842 64.6328 16.3887C63.8385 17.5931 62.6211 18.1953 60.9805 18.1953C59.3919 18.1953 58.1875 17.5736 57.3672 16.3301C56.5469 15.0866 56.1367 13.2637 56.1367 10.8613C56.1367 8.3418 56.5339 6.48633 57.3281 5.29492C58.1289 4.09701 59.3464 3.49805 60.9805 3.49805C62.5755 3.49805 63.7832 4.12305 64.6035 5.37305C65.4238 6.62305 65.834 8.45247 65.834 10.8613ZM58.4609 10.8613C58.4609 12.8079 58.6595 14.1979 59.0566 15.0312C59.4603 15.8646 60.1016 16.2812 60.9805 16.2812C61.8594 16.2812 62.5007 15.8581 62.9043 15.0117C63.3145 14.1654 63.5195 12.7819 63.5195 10.8613C63.5195 8.94727 63.3145 7.5638 62.9043 6.71094C62.5007 5.85156 61.8594 5.42188 60.9805 5.42188C60.1016 5.42188 59.4603 5.8418 59.0566 6.68164C58.6595 7.52148 58.4609 8.91471 58.4609 10.8613Z" fill="#6E6E6E"/>
<path d="M15.75 4.59375V3.28125H5.25V4.59375H8.85938C9.58368 4.59588 10.2818 4.86471 10.8205 5.34891C11.3592 5.83312 11.7006 6.49877 11.7797 7.21875H5.25V8.53125H11.7797C11.7006 9.25123 11.3592 9.91688 10.8205 10.4011C10.2818 10.8853 9.58368 11.1541 8.85938 11.1562H5.25V12.6952L11.5612 18.375L12.4392 17.3998L6.96019 12.4688H8.85938C9.93306 12.4672 10.9667 12.061 11.7543 11.3313C12.5418 10.6015 13.0254 9.60171 13.1086 8.53125H15.75V7.21875H13.1086C13.0333 6.23335 12.6167 5.30505 11.9306 4.59375H15.75Z" fill="#747474"/>
</svg>
