<svg width="76" height="17" viewBox="0 0 76 17" fill="none" xmlns="http://www.w3.org/2000/svg">
<path fill-rule="evenodd" clip-rule="evenodd" d="M9.51592 6.5268L7.93407 1.04395L6.35221 6.5268H0.99176L5.32872 10.0763L3.7191 15.6593L7.93407 12.2091L12.149 15.6593L10.5394 10.0763L14.8764 6.5268H9.51592Z" fill="#FFDC26"/>
<path fill-rule="evenodd" clip-rule="evenodd" d="M24.5489 6.5268L22.967 1.04395L21.3852 6.5268H16.0247L20.3617 10.0763L18.7521 15.6593L22.967 12.2091L27.182 15.6593L25.5724 10.0763L29.9093 6.5268H24.5489Z" fill="#FFDC26"/>
<path fill-rule="evenodd" clip-rule="evenodd" d="M39.5818 6.5268L38 1.04395L36.4181 6.5268H31.0577L35.3946 10.0763L33.785 15.6593L38 12.2091L42.215 15.6593L40.6053 10.0763L44.9423 6.5268H39.5818Z" fill="#FFDC26"/>
<path fill-rule="evenodd" clip-rule="evenodd" d="M54.6148 6.5268L53.033 1.04395L51.4511 6.5268H46.0907L50.4276 10.0763L48.818 15.6593L53.033 12.2091L57.2479 15.6593L55.6383 10.0763L59.9753 6.5268H54.6148Z" fill="#FFDC26"/>
<path d="M68.835 6.6721L68.9427 7.0268H69.3134H73.4983L70.0839 9.68152L69.8125 9.89252L69.9123 10.2215L71.1496 14.2984L67.9553 11.8144L67.6483 11.5757L67.3414 11.8144L64.147 14.2984L65.3843 10.2215L65.4841 9.89252L65.2128 9.68152L61.7983 7.0268H65.9832H66.3539L66.4616 6.6721L67.6483 2.76459L68.835 6.6721Z" stroke="#2C2C2C"/>
</svg>
